<?xml version="1.0" encoding="UTF-8" standalone="no"?>
<!DOCTYPE svg PUBLIC "-//W3C//DTD SVG 1.1//EN"
 "http://www.w3.org/Graphics/SVG/1.1/DTD/svg11.dtd">
<!-- Generated by graphviz version 14.1.3 (20260303.0454)
 -->
<!-- Title: Smith Pages: 1 -->
<svg width="1159pt" height="602pt"
 viewBox="0.00 0.00 1159.00 602.00" xmlns="http://www.w3.org/2000/svg" xmlns:xlink="http://www.w3.org/1999/xlink">
<g id="graph0" class="graph" transform="scale(1 1) rotate(0) translate(4 597.75)">
<title>Smith</title>
<polygon fill="#0d1117" stroke="none" points="-4,4 -4,-597.75 1154.5,-597.75 1154.5,4 -4,4"/>
<text xml:space="preserve" text-anchor="start" x="480.38" y="-571.75" font-family="Helvetica Neue" font-weight="bold" font-size="20.00" fill="white">Smith &#45; Architecture</text>
<text xml:space="preserve" text-anchor="start" x="441" y="-559.35" font-family="Helvetica Neue" font-size="12.00" fill="#8b949e">Speculative Turn&#45;taking S2S Technical Consultant</text>
<g id="clust1" class="cluster">
<title>cluster_browser</title>
<path fill="#161b22" stroke="#58a6ff" stroke-dasharray="5,2" d="M529,-8C529,-8 1114,-8 1114,-8 1120,-8 1126,-14 1126,-20 1126,-20 1126,-87.5 1126,-87.5 1126,-93.5 1120,-99.5 1114,-99.5 1114,-99.5 529,-99.5 529,-99.5 523,-99.5 517,-93.5 517,-87.5 517,-87.5 517,-20 517,-20 517,-14 523,-8 529,-8"/>
<text xml:space="preserve" text-anchor="start" x="709.75" y="-83.2" font-family="Helvetica Neue" font-weight="bold" font-size="14.00" fill="white">Browser (Next.js + Firebase Auth)</text>
</g>
<g id="clust2" class="cluster">
<title>cluster_cloudrun</title>
<path fill="#161b22" stroke="#f78166" d="M306,-257.5C306,-257.5 571,-257.5 571,-257.5 577,-257.5 583,-263.5 583,-269.5 583,-269.5 583,-533.75 583,-533.75 583,-539.75 577,-545.75 571,-545.75 571,-545.75 306,-545.75 306,-545.75 300,-545.75 294,-539.75 294,-533.75 294,-533.75 294,-269.5 294,-269.5 294,-263.5 300,-257.5 306,-257.5"/>
<text xml:space="preserve" text-anchor="start" x="344.38" y="-529.45" font-family="Helvetica Neue" font-weight="bold" font-size="14.00" fill="white">Cloud Run (FastAPI, Python)</text>
</g>
<g id="clust3" class="cluster">
<title>cluster_session</title>
<polygon fill="#0d1117" stroke="#30363d" stroke-dasharray="5,2" points="302,-265.5 302,-438.5 575,-438.5 575,-265.5 302,-265.5"/>
<text xml:space="preserve" text-anchor="start" x="389" y="-421" font-family="Helvetica Neue" font-size="14.00" fill="#8b949e">MeetingSession</text>
</g>
<g id="clust4" class="cluster">
<title>cluster_gcp</title>
<path fill="#161b22" stroke="#4285f4" d="M20,-140C20,-140 778,-140 778,-140 784,-140 790,-146 790,-152 790,-152 790,-207 790,-207 790,-213 784,-219 778,-219 778,-219 20,-219 20,-219 14,-219 8,-213 8,-207 8,-207 8,-152 8,-152 8,-146 14,-140 20,-140"/>
<text xml:space="preserve" text-anchor="start" x="323.62" y="-202.7" font-family="Helvetica Neue" font-weight="bold" font-size="14.00" fill="white">Google Cloud Platform</text>
</g>
<!-- mic -->
<g id="node1" class="node">
<title>mic</title>
<ellipse fill="#1f6feb" stroke="#30363d" cx="729" cy="-40.75" rx="66.47" ry="24.75"/>
<text xml:space="preserve" text-anchor="middle" x="729" y="-43.8" font-family="Helvetica Neue" font-size="11.00" fill="white">Microphone</text>
<text xml:space="preserve" text-anchor="middle" x="729" y="-30.3" font-family="Helvetica Neue" font-size="11.00" fill="white">(PCM16 16kHz)</text>
</g>
<!-- ws -->
<g id="node6" class="node">
<title>ws</title>
<path fill="#6e40c9" stroke="#30363d" d="M562.5,-511.75C562.5,-511.75 513.5,-511.75 513.5,-511.75 507.5,-511.75 501.5,-505.75 501.5,-499.75 501.5,-499.75 501.5,-487.75 501.5,-487.75 501.5,-481.75 507.5,-475.75 513.5,-475.75 513.5,-475.75 562.5,-475.75 562.5,-475.75 568.5,-475.75 574.5,-481.75 574.5,-487.75 574.5,-487.75 574.5,-499.75 574.5,-499.75 574.5,-505.75 568.5,-511.75 562.5,-511.75"/>
<text xml:space="preserve" text-anchor="middle" x="538" y="-496.8" font-family="Helvetica Neue" font-size="11.00" fill="white">WebSocket</text>
<text xml:space="preserve" text-anchor="middle" x="538" y="-483.3" font-family="Helvetica Neue" font-size="11.00" fill="white">Endpoint</text>
</g>
<!-- mic&#45;&gt;ws -->
<g id="edge1" class="edge">
<title>mic&#45;&gt;ws</title>
<path fill="none" stroke="#58a6ff" d="M746.64,-65.04C755.76,-77.41 766.86,-93.02 776,-107.5 802.8,-149.94 811.59,-171.98 794,-219 751.34,-333.01 634.31,-426.58 574.39,-468.7"/>
<polygon fill="#58a6ff" stroke="#58a6ff" points="572.41,-465.82 566.18,-474.39 576.4,-471.57 572.41,-465.82"/>
<text xml:space="preserve" text-anchor="middle" x="814.15" y="-294.7" font-family="Helvetica Neue" font-size="9.00" fill="#58a6ff">PCM16 audio</text>
<text xml:space="preserve" text-anchor="middle" x="814.15" y="-283.45" font-family="Helvetica Neue" font-size="9.00" fill="#58a6ff">(WebSocket binary)</text>
</g>
<!-- speaker -->
<g id="node2" class="node">
<title>speaker</title>
<ellipse fill="#1f6feb" stroke="#30363d" cx="880" cy="-40.75" rx="66.47" ry="24.75"/>
<text xml:space="preserve" text-anchor="middle" x="880" y="-43.8" font-family="Helvetica Neue" font-size="11.00" fill="white">Speaker</text>
<text xml:space="preserve" text-anchor="middle" x="880" y="-30.3" font-family="Helvetica Neue" font-size="11.00" fill="white">(PCM16 24kHz)</text>
</g>
<!-- ui -->
<g id="node3" class="node">
<title>ui</title>
<path fill="#238636" stroke="#30363d" d="M632.75,-61.25C632.75,-61.25 537.25,-61.25 537.25,-61.25 531.25,-61.25 525.25,-55.25 525.25,-49.25 525.25,-49.25 525.25,-32.25 525.25,-32.25 525.25,-26.25 531.25,-20.25 537.25,-20.25 537.25,-20.25 632.75,-20.25 632.75,-20.25 638.75,-20.25 644.75,-26.25 644.75,-32.25 644.75,-32.25 644.75,-49.25 644.75,-49.25 644.75,-55.25 638.75,-61.25 632.75,-61.25"/>
<text xml:space="preserve" text-anchor="start" x="536.25" y="-47.8" font-family="Helvetica Neue" font-weight="bold" font-size="11.00" fill="white">4&#45;Pane Dashboard</text>
<text xml:space="preserve" text-anchor="start" x="533.25" y="-36.8" font-family="Helvetica Neue" font-size="11.00" fill="white">Outline | Architecture</text>
<text xml:space="preserve" text-anchor="start" x="543.75" y="-25.8" font-family="Helvetica Neue" font-size="11.00" fill="white">Tasks | Schedule</text>
</g>
<!-- transcript_ui -->
<g id="node4" class="node">
<title>transcript_ui</title>
<path fill="#238636" stroke="#30363d" d="M1017.38,-58.75C1017.38,-58.75 976.62,-58.75 976.62,-58.75 970.62,-58.75 964.62,-52.75 964.62,-46.75 964.62,-46.75 964.62,-34.75 964.62,-34.75 964.62,-28.75 970.62,-22.75 976.62,-22.75 976.62,-22.75 1017.38,-22.75 1017.38,-22.75 1023.38,-22.75 1029.38,-28.75 1029.38,-34.75 1029.38,-34.75 1029.38,-46.75 1029.38,-46.75 1029.38,-52.75 1023.38,-58.75 1017.38,-58.75"/>
<text xml:space="preserve" text-anchor="middle" x="997" y="-43.8" font-family="Helvetica Neue" font-size="11.00" fill="white">Transcript</text>
<text xml:space="preserve" text-anchor="middle" x="997" y="-30.3" font-family="Helvetica Neue" font-size="11.00" fill="white">Panel</text>
</g>
<!-- divergence_ui -->
<g id="node5" class="node">
<title>divergence_ui</title>
<path fill="#da3633" stroke="#30363d" d="M1106.38,-58.75C1106.38,-58.75 1059.62,-58.75 1059.62,-58.75 1053.62,-58.75 1047.62,-52.75 1047.62,-46.75 1047.62,-46.75 1047.62,-34.75 1047.62,-34.75 1047.62,-28.75 1053.62,-22.75 1059.62,-22.75 1059.62,-22.75 1106.38,-22.75 1106.38,-22.75 1112.38,-22.75 1118.38,-28.75 1118.38,-34.75 1118.38,-34.75 1118.38,-46.75 1118.38,-46.75 1118.38,-52.75 1112.38,-58.75 1106.38,-58.75"/>
<text xml:space="preserve" text-anchor="middle" x="1083" y="-43.8" font-family="Helvetica Neue" font-size="11.00" fill="white">Divergence</text>
<text xml:space="preserve" text-anchor="middle" x="1083" y="-30.3" font-family="Helvetica Neue" font-size="11.00" fill="white">Meter</text>
</g>
<!-- ws&#45;&gt;speaker -->
<g id="edge2" class="edge">
<title>ws&#45;&gt;speaker</title>
<path fill="none" stroke="#58a6ff" d="M574.91,-489.59C664.47,-480.9 886,-452.91 886,-388.5 886,-388.5 886,-388.5 886,-165.5 886,-135.74 884.25,-102 882.64,-77.27"/>
<polygon fill="#58a6ff" stroke="#58a6ff" points="886.14,-77.17 881.97,-67.43 879.15,-77.64 886.14,-77.17"/>
<text xml:space="preserve" text-anchor="middle" x="914.12" y="-294.7" font-family="Helvetica Neue" font-size="9.00" fill="#58a6ff">PCM24 audio</text>
<text xml:space="preserve" text-anchor="middle" x="914.12" y="-283.45" font-family="Helvetica Neue" font-size="9.00" fill="#58a6ff">(0x01 + bytes)</text>
</g>
<!-- ws&#45;&gt;transcript_ui -->
<g id="edge3" class="edge">
<title>ws&#45;&gt;transcript_ui</title>
<path fill="none" stroke="#8b949e" stroke-dasharray="5,2" d="M574.76,-491.87C680.51,-488.35 978,-471.12 978,-388.5 978,-388.5 978,-388.5 978,-165.5 978,-132.62 984.63,-95.4 990.06,-70.44"/>
<polygon fill="#8b949e" stroke="#8b949e" points="993.47,-71.24 992.26,-60.72 986.64,-69.7 993.47,-71.24"/>
<text xml:space="preserve" text-anchor="middle" x="1012.5" y="-289.07" font-family="Helvetica Neue" font-size="9.00" fill="#8b949e">JSON transcripts</text>
</g>
<!-- ws&#45;&gt;divergence_ui -->
<g id="edge4" class="edge">
<title>ws&#45;&gt;divergence_ui</title>
<path fill="none" stroke="#da3633" stroke-dasharray="5,2" d="M574.88,-491.83C641.85,-489.6 787.69,-482.13 908,-457.75 935.86,-452.1 942.39,-448.5 969,-438.5 1020.79,-419.03 1083,-443.82 1083,-388.5 1083,-388.5 1083,-388.5 1083,-165.5 1083,-132.82 1083,-95.28 1083,-70.2"/>
<polygon fill="#da3633" stroke="#da3633" points="1086.5,-70.48 1083,-60.48 1079.5,-70.48 1086.5,-70.48"/>
<text xml:space="preserve" text-anchor="middle" x="1116.75" y="-289.07" font-family="Helvetica Neue" font-size="9.00" fill="#da3633">divergence score</text>
</g>
<!-- gemini_client -->
<g id="node7" class="node">
<title>gemini_client</title>
<path fill="#1a7f37" stroke="#30363d" d="M426.25,-406C426.25,-406 321.75,-406 321.75,-406 315.75,-406 309.75,-400 309.75,-394 309.75,-394 309.75,-381 309.75,-381 309.75,-375 315.75,-369 321.75,-369 321.75,-369 426.25,-369 426.25,-369 432.25,-369 438.25,-375 438.25,-381 438.25,-381 438.25,-394 438.25,-394 438.25,-400 432.25,-406 426.25,-406"/>
<text xml:space="preserve" text-anchor="start" x="329.38" y="-392.55" font-family="Helvetica Neue" font-weight="bold" font-size="11.00" fill="white">GeminiLiveClient</text>
<text xml:space="preserve" text-anchor="start" x="317.75" y="-383.45" font-family="Helvetica Neue" font-size="9.00" fill="white">Voice I/O + Function Calling</text>
<text xml:space="preserve" text-anchor="start" x="357.88" y="-374.45" font-family="Helvetica Neue" font-size="9.00" fill="white">(3 tools)</text>
</g>
<!-- ws&#45;&gt;gemini_client -->
<g id="edge5" class="edge">
<title>ws&#45;&gt;gemini_client</title>
<path fill="none" stroke="#8b949e" d="M508.17,-475.29C490.53,-464.84 467.84,-451.16 448,-438.5 435.21,-430.33 421.39,-421.1 409.19,-412.82"/>
<polygon fill="#8b949e" stroke="#8b949e" points="411.29,-410.01 401.06,-407.27 407.35,-415.8 411.29,-410.01"/>
<text xml:space="preserve" text-anchor="middle" x="499.18" y="-449.2" font-family="Helvetica Neue" font-size="9.00" fill="#8b949e">audio relay</text>
</g>
<!-- spec_engine -->
<g id="node8" class="node">
<title>spec_engine</title>
<path fill="#da3633" stroke="#30363d" d="M426.25,-310.5C426.25,-310.5 321.75,-310.5 321.75,-310.5 315.75,-310.5 309.75,-304.5 309.75,-298.5 309.75,-298.5 309.75,-285.5 309.75,-285.5 309.75,-279.5 315.75,-273.5 321.75,-273.5 321.75,-273.5 426.25,-273.5 426.25,-273.5 432.25,-273.5 438.25,-279.5 438.25,-285.5 438.25,-285.5 438.25,-298.5 438.25,-298.5 438.25,-304.5 432.25,-310.5 426.25,-310.5"/>
<text xml:space="preserve" text-anchor="start" x="325.25" y="-297.05" font-family="Helvetica Neue" font-weight="bold" font-size="11.00" fill="white">SpeculativeEngine</text>
<text xml:space="preserve" text-anchor="start" x="317.75" y="-287.95" font-family="Helvetica Neue" font-size="9.00" fill="white">Predict + Embed + Compare</text>
<text xml:space="preserve" text-anchor="start" x="339.88" y="-278.95" font-family="Helvetica Neue" font-size="9.00" fill="white">(~10ms decision)</text>
</g>
<!-- gemini_client&#45;&gt;spec_engine -->
<g id="edge6" class="edge">
<title>gemini_client&#45;&gt;spec_engine</title>
<path fill="none" stroke="#8b949e" stroke-dasharray="5,2" d="M374,-368.91C374,-355.8 374,-337.61 374,-322.31"/>
<polygon fill="#8b949e" stroke="#8b949e" points="377.5,-322.34 374,-312.34 370.5,-322.34 377.5,-322.34"/>
<text xml:space="preserve" text-anchor="middle" x="398.38" y="-342.45" font-family="Helvetica Neue" font-size="9.00" fill="#8b949e">turn_started</text>
<text xml:space="preserve" text-anchor="middle" x="398.38" y="-331.2" font-family="Helvetica Neue" font-size="9.00" fill="#8b949e">transcript</text>
</g>
<!-- fw -->
<g id="node10" class="node">
<title>fw</title>
<path fill="#f78166" stroke="#30363d" d="M547.5,-310C547.5,-310 468.5,-310 468.5,-310 462.5,-310 456.5,-304 456.5,-298 456.5,-298 456.5,-286 456.5,-286 456.5,-280 462.5,-274 468.5,-274 468.5,-274 547.5,-274 547.5,-274 553.5,-274 559.5,-280 559.5,-286 559.5,-286 559.5,-298 559.5,-298 559.5,-304 553.5,-310 547.5,-310"/>
<text xml:space="preserve" text-anchor="middle" x="508" y="-295.05" font-family="Helvetica Neue" font-size="11.00" fill="white">FirestoreWriter</text>
<text xml:space="preserve" text-anchor="middle" x="508" y="-281.55" font-family="Helvetica Neue" font-size="11.00" fill="white">(Transaction&#45;safe)</text>
</g>
<!-- gemini_client&#45;&gt;fw -->
<g id="edge7" class="edge">
<title>gemini_client&#45;&gt;fw</title>
<path fill="none" stroke="#8b949e" d="M399.52,-368.69C420.52,-354.04 450.47,-333.14 473.59,-317.01"/>
<polygon fill="#8b949e" stroke="#8b949e" points="475.59,-319.88 481.79,-311.29 471.58,-314.14 475.59,-319.88"/>
<text xml:space="preserve" text-anchor="middle" x="479.44" y="-336.82" font-family="Helvetica Neue" font-size="9.00" fill="#8b949e">tool results</text>
</g>
<!-- gemini_live -->
<g id="node11" class="node">
<title>gemini_live</title>
<path fill="#4285f4" stroke="#30363d" d="M140,-185C140,-185 28,-185 28,-185 22,-185 16,-179 16,-173 16,-173 16,-160 16,-160 16,-154 22,-148 28,-148 28,-148 140,-148 140,-148 146,-148 152,-154 152,-160 152,-160 152,-173 152,-173 152,-179 146,-185 140,-185"/>
<text xml:space="preserve" text-anchor="start" x="42.75" y="-171.55" font-family="Helvetica Neue" font-weight="bold" font-size="11.00" fill="white">Gemini Live API</text>
<text xml:space="preserve" text-anchor="start" x="24" y="-162.45" font-family="Helvetica Neue" font-size="9.00" fill="white">gemini&#45;2.5&#45;flash&#45;native&#45;audio</text>
<text xml:space="preserve" text-anchor="start" x="47.25" y="-153.45" font-family="Helvetica Neue" font-size="9.00" fill="white">&#45;preview&#45;12&#45;2025</text>
</g>
<!-- gemini_client&#45;&gt;gemini_live -->
<g id="edge9" class="edge">
<title>gemini_client&#45;&gt;gemini_live</title>
<path fill="none" stroke="#4285f4" stroke-width="2" d="M309.43,-378.07C261.15,-368.79 196.16,-349.62 152.25,-310.5 117.86,-279.86 99.26,-228.12 90.51,-196"/>
<polygon fill="#4285f4" stroke="#4285f4" stroke-width="2" points="94.34,-196.87 88.47,-188.06 87.56,-198.61 94.34,-196.87"/>
<text xml:space="preserve" text-anchor="middle" x="191.62" y="-294.7" font-family="Helvetica Neue" font-size="9.00" fill="#4285f4">WebSocket</text>
<text xml:space="preserve" text-anchor="middle" x="191.62" y="-283.45" font-family="Helvetica Neue" font-size="9.00" fill="#4285f4">(bidirectional audio)</text>
</g>
<!-- gemini_flash -->
<g id="node12" class="node">
<title>gemini_flash</title>
<path fill="#4285f4" stroke="#30363d" d="M270,-185C270,-185 182,-185 182,-185 176,-185 170,-179 170,-173 170,-173 170,-160 170,-160 170,-154 176,-148 182,-148 182,-148 270,-148 270,-148 276,-148 282,-154 282,-160 282,-160 282,-173 282,-173 282,-179 276,-185 270,-185"/>
<text xml:space="preserve" text-anchor="start" x="191.88" y="-171.55" font-family="Helvetica Neue" font-weight="bold" font-size="11.00" fill="white">Gemini Flash</text>
<text xml:space="preserve" text-anchor="start" x="193" y="-162.45" font-family="Helvetica Neue" font-size="9.00" fill="white">gemini&#45;2.5&#45;flash</text>
<text xml:space="preserve" text-anchor="start" x="178" y="-153.45" font-family="Helvetica Neue" font-size="9.00" fill="white">(Text generation + tools)</text>
</g>
<!-- spec_engine&#45;&gt;gemini_flash -->
<g id="edge10" class="edge">
<title>spec_engine&#45;&gt;gemini_flash</title>
<path fill="none" stroke="#4285f4" d="M352.48,-273.04C327.16,-251.91 284.95,-216.69 256.33,-192.8"/>
<polygon fill="#4285f4" stroke="#4285f4" points="258.63,-190.17 248.71,-186.45 254.14,-195.54 258.63,-190.17"/>
<text xml:space="preserve" text-anchor="middle" x="342.53" y="-240.95" font-family="Helvetica Neue" font-size="9.00" fill="#4285f4">predict</text>
<text xml:space="preserve" text-anchor="middle" x="342.53" y="-229.7" font-family="Helvetica Neue" font-size="9.00" fill="#4285f4">responses</text>
</g>
<!-- gemini_embed -->
<g id="node13" class="node">
<title>gemini_embed</title>
<path fill="#4285f4" stroke="#30363d" d="M423.62,-185C423.62,-185 312.38,-185 312.38,-185 306.38,-185 300.38,-179 300.38,-173 300.38,-173 300.38,-160 300.38,-160 300.38,-154 306.38,-148 312.38,-148 312.38,-148 423.62,-148 423.62,-148 429.62,-148 435.62,-154 435.62,-160 435.62,-160 435.62,-173 435.62,-173 435.62,-179 429.62,-185 423.62,-185"/>
<text xml:space="preserve" text-anchor="start" x="315.12" y="-171.55" font-family="Helvetica Neue" font-weight="bold" font-size="11.00" fill="white">Gemini Embeddings</text>
<text xml:space="preserve" text-anchor="start" x="308.38" y="-162.45" font-family="Helvetica Neue" font-size="9.00" fill="white">gemini&#45;embedding&#45;2&#45;preview</text>
<text xml:space="preserve" text-anchor="start" x="332.75" y="-153.45" font-family="Helvetica Neue" font-size="9.00" fill="white">(768&#45;dim vectors)</text>
</g>
<!-- spec_engine&#45;&gt;gemini_embed -->
<g id="edge11" class="edge">
<title>spec_engine&#45;&gt;gemini_embed</title>
<path fill="none" stroke="#4285f4" d="M373.13,-273.04C372.16,-253.1 370.58,-220.61 369.43,-196.94"/>
<polygon fill="#4285f4" stroke="#4285f4" points="372.93,-196.81 368.95,-186.99 365.94,-197.15 372.93,-196.81"/>
<text xml:space="preserve" text-anchor="middle" x="388.01" y="-240.95" font-family="Helvetica Neue" font-size="9.00" fill="#4285f4">embed</text>
<text xml:space="preserve" text-anchor="middle" x="388.01" y="-229.7" font-family="Helvetica Neue" font-size="9.00" fill="#4285f4">(~10ms)</text>
</g>
<!-- bg_agent -->
<g id="node9" class="node">
<title>bg_agent</title>
<path fill="#8957e5" stroke="#30363d" d="M555.25,-406C555.25,-406 468.75,-406 468.75,-406 462.75,-406 456.75,-400 456.75,-394 456.75,-394 456.75,-381 456.75,-381 456.75,-375 462.75,-369 468.75,-369 468.75,-369 555.25,-369 555.25,-369 561.25,-369 567.25,-375 567.25,-381 567.25,-381 567.25,-394 567.25,-394 567.25,-400 561.25,-406 555.25,-406"/>
<text xml:space="preserve" text-anchor="start" x="464.75" y="-392.55" font-family="Helvetica Neue" font-weight="bold" font-size="11.00" fill="white">BackgroundAgent</text>
<text xml:space="preserve" text-anchor="start" x="470.75" y="-383.45" font-family="Helvetica Neue" font-size="9.00" fill="white">Dashboard inference</text>
<text xml:space="preserve" text-anchor="start" x="467.75" y="-374.45" font-family="Helvetica Neue" font-size="9.00" fill="white">(2s debounce, 5 tools)</text>
</g>
<!-- bg_agent&#45;&gt;fw -->
<g id="edge8" class="edge">
<title>bg_agent&#45;&gt;fw</title>
<path fill="none" stroke="#8b949e" d="M511.25,-368.91C510.67,-355.51 509.87,-336.77 509.21,-321.27"/>
<polygon fill="#8b949e" stroke="#8b949e" points="512.72,-321.54 508.8,-311.7 505.73,-321.84 512.72,-321.54"/>
<text xml:space="preserve" text-anchor="middle" x="526.6" y="-342.45" font-family="Helvetica Neue" font-size="9.00" fill="#8b949e">inferred</text>
<text xml:space="preserve" text-anchor="middle" x="526.6" y="-331.2" font-family="Helvetica Neue" font-size="9.00" fill="#8b949e">updates</text>
</g>
<!-- bg_agent&#45;&gt;gemini_flash -->
<g id="edge12" class="edge">
<title>bg_agent&#45;&gt;gemini_flash</title>
<path fill="none" stroke="#8957e5" d="M456.36,-371.39C453.2,-370.57 450.06,-369.77 447,-369 363.68,-348.05 320.09,-374.48 262.75,-310.5 234.39,-278.84 227.35,-228.2 225.91,-196.45"/>
<polygon fill="#8957e5" stroke="#8957e5" points="229.42,-196.69 225.64,-186.8 222.42,-196.89 229.42,-196.69"/>
<text xml:space="preserve" text-anchor="middle" x="281.88" y="-294.7" font-family="Helvetica Neue" font-size="9.00" fill="#8957e5">analyze</text>
<text xml:space="preserve" text-anchor="middle" x="281.88" y="-283.45" font-family="Helvetica Neue" font-size="9.00" fill="#8957e5">transcript</text>
</g>
<!-- firestore -->
<g id="node14" class="node">
<title>firestore</title>
<path fill="#f9ab00" stroke="#30363d" d="M539.88,-185C539.88,-185 466.12,-185 466.12,-185 460.12,-185 454.12,-179 454.12,-173 454.12,-173 454.12,-160 454.12,-160 454.12,-154 460.12,-148 466.12,-148 466.12,-148 539.88,-148 539.88,-148 545.88,-148 551.88,-154 551.88,-160 551.88,-160 551.88,-173 551.88,-173 551.88,-179 545.88,-185 539.88,-185"/>
<text xml:space="preserve" text-anchor="start" x="462.12" y="-171.55" font-family="Helvetica Neue" font-weight="bold" font-size="11.00" fill="#1a1a1a">Cloud Firestore</text>
<text xml:space="preserve" text-anchor="start" x="467.75" y="-162.45" font-family="Helvetica Neue" font-size="9.00" fill="#1a1a1a">Real&#45;time NoSQL</text>
<text xml:space="preserve" text-anchor="start" x="465.5" y="-153.45" font-family="Helvetica Neue" font-size="9.00" fill="#1a1a1a">(onSnapshot sync)</text>
</g>
<!-- fw&#45;&gt;firestore -->
<g id="edge13" class="edge">
<title>fw&#45;&gt;firestore</title>
<path fill="none" stroke="#f9ab00" d="M507.29,-273.56C506.48,-253.54 505.14,-220.38 504.17,-196.47"/>
<polygon fill="#f9ab00" stroke="#f9ab00" points="507.68,-196.6 503.78,-186.75 500.69,-196.89 507.68,-196.6"/>
<text xml:space="preserve" text-anchor="middle" x="533.24" y="-240.95" font-family="Helvetica Neue" font-size="9.00" fill="#f9ab00">upsert</text>
<text xml:space="preserve" text-anchor="middle" x="533.24" y="-229.7" font-family="Helvetica Neue" font-size="9.00" fill="#f9ab00">(transactions)</text>
</g>
<!-- firestore&#45;&gt;ui -->
<g id="edge14" class="edge">
<title>firestore&#45;&gt;ui</title>
<path fill="none" stroke="#f9ab00" stroke-width="2" d="M514.92,-147.5C528.22,-127.44 549.91,-94.71 565.64,-70.96"/>
<polygon fill="#f9ab00" stroke="#f9ab00" stroke-width="2" points="567.7,-74.19 570.31,-63.92 561.86,-70.33 567.7,-74.19"/>
<text xml:space="preserve" text-anchor="middle" x="569.47" y="-121.45" font-family="Helvetica Neue" font-size="9.00" fill="#f9ab00">onSnapshot</text>
<text xml:space="preserve" text-anchor="middle" x="569.47" y="-110.2" font-family="Helvetica Neue" font-size="9.00" fill="#f9ab00">(real&#45;time sync)</text>
</g>
<!-- firebase_auth -->
<g id="node15" class="node">
<title>firebase_auth</title>
<path fill="#f9ab00" stroke="#30363d" d="M646.38,-184.5C646.38,-184.5 581.62,-184.5 581.62,-184.5 575.62,-184.5 569.62,-178.5 569.62,-172.5 569.62,-172.5 569.62,-160.5 569.62,-160.5 569.62,-154.5 575.62,-148.5 581.62,-148.5 581.62,-148.5 646.38,-148.5 646.38,-148.5 652.38,-148.5 658.38,-154.5 658.38,-160.5 658.38,-160.5 658.38,-172.5 658.38,-172.5 658.38,-178.5 652.38,-184.5 646.38,-184.5"/>
<text xml:space="preserve" text-anchor="start" x="577.62" y="-167.05" font-family="Helvetica Neue" font-weight="bold" font-size="11.00" fill="#1a1a1a">Firebase Auth</text>
<text xml:space="preserve" text-anchor="start" x="585.12" y="-157.95" font-family="Helvetica Neue" font-size="9.00" fill="#1a1a1a">Google OAuth</text>
</g>
<!-- firebase_auth&#45;&gt;ws -->
<g id="edge15" class="edge">
<title>firebase_auth&#45;&gt;ws</title>
<path fill="none" stroke="#f9ab00" stroke-dasharray="5,2" d="M614.76,-184.76C616.1,-228.85 615.78,-348.47 579,-438.5 574.87,-448.61 568.37,-458.5 561.75,-467.01"/>
<polygon fill="#f9ab00" stroke="#f9ab00" points="559.25,-464.53 555.59,-474.47 564.65,-468.98 559.25,-464.53"/>
<text xml:space="preserve" text-anchor="middle" x="628.56" y="-342.45" font-family="Helvetica Neue" font-size="9.00" fill="#f9ab00">ID token</text>
<text xml:space="preserve" text-anchor="middle" x="628.56" y="-331.2" font-family="Helvetica Neue" font-size="9.00" fill="#f9ab00">verification</text>
</g>
<!-- firebase_hosting -->
<g id="node16" class="node">
<title>firebase_hosting</title>
<path fill="#f9ab00" stroke="#30363d" d="M769.62,-184.5C769.62,-184.5 688.38,-184.5 688.38,-184.5 682.38,-184.5 676.38,-178.5 676.38,-172.5 676.38,-172.5 676.38,-160.5 676.38,-160.5 676.38,-154.5 682.38,-148.5 688.38,-148.5 688.38,-148.5 769.62,-148.5 769.62,-148.5 775.62,-148.5 781.62,-154.5 781.62,-160.5 781.62,-160.5 781.62,-172.5 781.62,-172.5 781.62,-178.5 775.62,-184.5 769.62,-184.5"/>
<text xml:space="preserve" text-anchor="start" x="684.38" y="-167.05" font-family="Helvetica Neue" font-weight="bold" font-size="11.00" fill="#1a1a1a">Firebase Hosting</text>
<text xml:space="preserve" text-anchor="start" x="703.12" y="-157.95" font-family="Helvetica Neue" font-size="9.00" fill="#1a1a1a">Next.js static</text>
</g>
<!-- firebase_hosting&#45;&gt;mic -->
<g id="edge16" class="edge">
<title>firebase_hosting&#45;&gt;mic</title>
<path fill="none" stroke="#8b949e" stroke-dasharray="1,5" d="M729,-148.03C729,-129.76 729,-100.58 729,-77.41"/>
<polygon fill="#8b949e" stroke="#8b949e" points="732.5,-77.44 729,-67.44 725.5,-77.44 732.5,-77.44"/>
<text xml:space="preserve" text-anchor="middle" x="750.38" y="-115.82" font-family="Helvetica Neue" font-size="9.00" fill="#8b949e">serves app</text>
</g>
</g>
</svg>
