<?xml version="1.0" encoding="UTF-8" standalone="no"?>
<!DOCTYPE svg PUBLIC "-//W3C//DTD SVG 1.1//EN"
 "http://www.w3.org/Graphics/SVG/1.1/DTD/svg11.dtd">
<!-- Generated by graphviz version 14.1.3 (20260303.0454)
 -->
<!-- Title: Smith Pages: 1 -->
<svg width="1155pt" height="604pt"
 viewBox="0.00 0.00 1155.00 604.00" xmlns="http://www.w3.org/2000/svg" xmlns:xlink="http://www.w3.org/1999/xlink">
<g id="graph0" class="graph" transform="scale(1 1) rotate(0) translate(4 600)">
<title>Smith</title>
<polygon fill="#0d1117" stroke="none" points="-4,4 -4,-600 1151,-600 1151,4 -4,4"/>
<text xml:space="preserve" text-anchor="start" x="478.62" y="-574" font-family="Helvetica Neue" font-weight="bold" font-size="20.00" fill="white">Smith &#45; Architecture</text>
<text xml:space="preserve" text-anchor="start" x="438.12" y="-561.6" font-family="Helvetica Neue" font-size="12.00" fill="#8b949e">AI Technical Consultant with Real&#45;time Dashboard</text>
<g id="clust1" class="cluster">
<title>cluster_browser</title>
<path fill="#161b22" stroke="#58a6ff" stroke-dasharray="5,2" d="M631,-9.25C631,-9.25 1127,-9.25 1127,-9.25 1133,-9.25 1139,-15.25 1139,-21.25 1139,-21.25 1139,-114.75 1139,-114.75 1139,-120.75 1133,-126.75 1127,-126.75 1127,-126.75 631,-126.75 631,-126.75 625,-126.75 619,-120.75 619,-114.75 619,-114.75 619,-21.25 619,-21.25 619,-15.25 625,-9.25 631,-9.25"/>
<text xml:space="preserve" text-anchor="start" x="767.25" y="-110.45" font-family="Helvetica Neue" font-weight="bold" font-size="14.00" fill="white">Browser (Next.js + Firebase Auth)</text>
</g>
<g id="clust2" class="cluster">
<title>cluster_cloudrun</title>
<path fill="#161b22" stroke="#f78166" d="M20,-8C20,-8 219,-8 219,-8 225,-8 231,-14 231,-20 231,-20 231,-536 231,-536 231,-542 225,-548 219,-548 219,-548 20,-548 20,-548 14,-548 8,-542 8,-536 8,-536 8,-20 8,-20 8,-14 14,-8 20,-8"/>
<text xml:space="preserve" text-anchor="start" x="25.38" y="-531.7" font-family="Helvetica Neue" font-weight="bold" font-size="14.00" fill="white">Cloud Run (FastAPI, Python)</text>
</g>
<g id="clust3" class="cluster">
<title>cluster_session</title>
<polygon fill="#0d1117" stroke="#30363d" stroke-dasharray="5,2" points="16,-16 16,-414.75 223,-414.75 223,-16 16,-16"/>
<text xml:space="preserve" text-anchor="start" x="70" y="-397.25" font-family="Helvetica Neue" font-size="14.00" fill="#8b949e">MeetingSession</text>
</g>
<g id="clust4" class="cluster">
<title>cluster_gcp</title>
<path fill="#161b22" stroke="#4285f4" d="M251,-167.25C251,-167.25 855,-167.25 855,-167.25 861,-167.25 867,-173.25 867,-179.25 867,-179.25 867,-260.25 867,-260.25 867,-266.25 861,-272.25 855,-272.25 855,-272.25 251,-272.25 251,-272.25 245,-272.25 239,-266.25 239,-260.25 239,-260.25 239,-179.25 239,-179.25 239,-173.25 245,-167.25 251,-167.25"/>
<text xml:space="preserve" text-anchor="start" x="477.62" y="-255.95" font-family="Helvetica Neue" font-weight="bold" font-size="14.00" fill="white">Google Cloud Platform</text>
</g>
<!-- mic -->
<g id="node1" class="node">
<title>mic</title>
<ellipse fill="#1f6feb" stroke="#30363d" cx="831" cy="-42" rx="66.47" ry="24.75"/>
<text xml:space="preserve" text-anchor="middle" x="831" y="-45.05" font-family="Helvetica Neue" font-size="11.00" fill="white">Microphone</text>
<text xml:space="preserve" text-anchor="middle" x="831" y="-31.55" font-family="Helvetica Neue" font-size="11.00" fill="white">(PCM16 16kHz)</text>
</g>
<!-- ws -->
<g id="node5" class="node">
<title>ws</title>
<path fill="#6e40c9" stroke="#30363d" d="M210.5,-488C210.5,-488 161.5,-488 161.5,-488 155.5,-488 149.5,-482 149.5,-476 149.5,-476 149.5,-464 149.5,-464 149.5,-458 155.5,-452 161.5,-452 161.5,-452 210.5,-452 210.5,-452 216.5,-452 222.5,-458 222.5,-464 222.5,-464 222.5,-476 222.5,-476 222.5,-482 216.5,-488 210.5,-488"/>
<text xml:space="preserve" text-anchor="middle" x="186" y="-473.05" font-family="Helvetica Neue" font-size="11.00" fill="white">WebSocket</text>
<text xml:space="preserve" text-anchor="middle" x="186" y="-459.55" font-family="Helvetica Neue" font-size="11.00" fill="white">Endpoint</text>
</g>
<!-- mic&#45;&gt;ws -->
<g id="edge1" class="edge">
<title>mic&#45;&gt;ws</title>
<path fill="none" stroke="#58a6ff" d="M844.83,-66.64C868.43,-110.39 910.32,-205.62 871,-272.25 804.43,-385.07 737.53,-374.1 613,-414.75 480.46,-458.01 314.31,-467.03 233.94,-468.74"/>
<polygon fill="#58a6ff" stroke="#58a6ff" points="234.16,-465.23 224.23,-468.91 234.29,-472.23 234.16,-465.23"/>
<text xml:space="preserve" text-anchor="middle" x="903.48" y="-294.2" font-family="Helvetica Neue" font-size="9.00" fill="#58a6ff">PCM16 audio</text>
<text xml:space="preserve" text-anchor="middle" x="903.48" y="-282.95" font-family="Helvetica Neue" font-size="9.00" fill="#58a6ff">(WebSocket binary)</text>
</g>
<!-- speaker -->
<g id="node2" class="node">
<title>speaker</title>
<ellipse fill="#1f6feb" stroke="#30363d" cx="1065" cy="-42" rx="66.47" ry="24.75"/>
<text xml:space="preserve" text-anchor="middle" x="1065" y="-45.05" font-family="Helvetica Neue" font-size="11.00" fill="white">Speaker</text>
<text xml:space="preserve" text-anchor="middle" x="1065" y="-31.55" font-family="Helvetica Neue" font-size="11.00" fill="white">(PCM16 24kHz)</text>
</g>
<!-- ui -->
<g id="node3" class="node">
<title>ui</title>
<path fill="#238636" stroke="#30363d" d="M734.75,-62.5C734.75,-62.5 639.25,-62.5 639.25,-62.5 633.25,-62.5 627.25,-56.5 627.25,-50.5 627.25,-50.5 627.25,-33.5 627.25,-33.5 627.25,-27.5 633.25,-21.5 639.25,-21.5 639.25,-21.5 734.75,-21.5 734.75,-21.5 740.75,-21.5 746.75,-27.5 746.75,-33.5 746.75,-33.5 746.75,-50.5 746.75,-50.5 746.75,-56.5 740.75,-62.5 734.75,-62.5"/>
<text xml:space="preserve" text-anchor="start" x="638.25" y="-49.05" font-family="Helvetica Neue" font-weight="bold" font-size="11.00" fill="white">4&#45;Pane Dashboard</text>
<text xml:space="preserve" text-anchor="start" x="635.25" y="-38.05" font-family="Helvetica Neue" font-size="11.00" fill="white">Outline | Architecture</text>
<text xml:space="preserve" text-anchor="start" x="645.75" y="-27.05" font-family="Helvetica Neue" font-size="11.00" fill="white">Tasks | Schedule</text>
</g>
<!-- transcript_ui -->
<g id="node4" class="node">
<title>transcript_ui</title>
<path fill="#238636" stroke="#30363d" d="M968.38,-60C968.38,-60 927.62,-60 927.62,-60 921.62,-60 915.62,-54 915.62,-48 915.62,-48 915.62,-36 915.62,-36 915.62,-30 921.62,-24 927.62,-24 927.62,-24 968.38,-24 968.38,-24 974.38,-24 980.38,-30 980.38,-36 980.38,-36 980.38,-48 980.38,-48 980.38,-54 974.38,-60 968.38,-60"/>
<text xml:space="preserve" text-anchor="middle" x="948" y="-45.05" font-family="Helvetica Neue" font-size="11.00" fill="white">Transcript</text>
<text xml:space="preserve" text-anchor="middle" x="948" y="-31.55" font-family="Helvetica Neue" font-size="11.00" fill="white">Panel</text>
</g>
<!-- ws&#45;&gt;speaker -->
<g id="edge2" class="edge">
<title>ws&#45;&gt;speaker</title>
<path fill="none" stroke="#58a6ff" d="M222.61,-468.43C344.07,-466.19 732.66,-455.87 850,-414.75 938.92,-383.59 978.83,-381.87 1030,-302.75 1074.91,-233.3 1073.69,-131.54 1069.21,-78.35"/>
<polygon fill="#58a6ff" stroke="#58a6ff" points="1072.72,-78.28 1068.3,-68.66 1065.75,-78.94 1072.72,-78.28"/>
<text xml:space="preserve" text-anchor="middle" x="1069.99" y="-294.2" font-family="Helvetica Neue" font-size="9.00" fill="#58a6ff">PCM24 audio</text>
<text xml:space="preserve" text-anchor="middle" x="1069.99" y="-282.95" font-family="Helvetica Neue" font-size="9.00" fill="#58a6ff">(0x01 + bytes)</text>
</g>
<!-- ws&#45;&gt;transcript_ui -->
<g id="edge3" class="edge">
<title>ws&#45;&gt;transcript_ui</title>
<path fill="none" stroke="#8b949e" stroke-dasharray="5,2" d="M222.96,-467.36C330.43,-462.3 641.37,-445.33 738,-414.75 838.1,-383.07 891.81,-392.68 946,-302.75 990.17,-229.44 969.95,-122.07 956.53,-71.43"/>
<polygon fill="#8b949e" stroke="#8b949e" points="959.92,-70.55 953.88,-61.85 953.18,-72.42 959.92,-70.55"/>
<text xml:space="preserve" text-anchor="middle" x="991.25" y="-288.57" font-family="Helvetica Neue" font-size="9.00" fill="#8b949e">JSON transcripts</text>
</g>
<!-- gemini_client -->
<g id="node6" class="node">
<title>gemini_client</title>
<path fill="#1a7f37" stroke="#30363d" d="M203.25,-357.75C203.25,-357.75 98.75,-357.75 98.75,-357.75 92.75,-357.75 86.75,-351.75 86.75,-345.75 86.75,-345.75 86.75,-332.75 86.75,-332.75 86.75,-326.75 92.75,-320.75 98.75,-320.75 98.75,-320.75 203.25,-320.75 203.25,-320.75 209.25,-320.75 215.25,-326.75 215.25,-332.75 215.25,-332.75 215.25,-345.75 215.25,-345.75 215.25,-351.75 209.25,-357.75 203.25,-357.75"/>
<text xml:space="preserve" text-anchor="start" x="106.38" y="-344.3" font-family="Helvetica Neue" font-weight="bold" font-size="11.00" fill="white">GeminiLiveClient</text>
<text xml:space="preserve" text-anchor="start" x="94.75" y="-335.2" font-family="Helvetica Neue" font-size="9.00" fill="white">Voice I/O + Function Calling</text>
<text xml:space="preserve" text-anchor="start" x="134.88" y="-326.2" font-family="Helvetica Neue" font-size="9.00" fill="white">(3 tools)</text>
</g>
<!-- ws&#45;&gt;gemini_client -->
<g id="edge4" class="edge">
<title>ws&#45;&gt;gemini_client</title>
<path fill="none" stroke="#8b949e" d="M181.28,-451.63C175.52,-430.44 165.7,-394.31 158.81,-368.96"/>
<polygon fill="#8b949e" stroke="#8b949e" points="162.27,-368.36 156.27,-359.62 155.51,-370.19 162.27,-368.36"/>
<text xml:space="preserve" text-anchor="middle" x="197.41" y="-425.45" font-family="Helvetica Neue" font-size="9.00" fill="#8b949e">audio relay</text>
</g>
<!-- bg_agent -->
<g id="node7" class="node">
<title>bg_agent</title>
<path fill="#8957e5" stroke="#30363d" d="M122.25,-212.25C122.25,-212.25 35.75,-212.25 35.75,-212.25 29.75,-212.25 23.75,-206.25 23.75,-200.25 23.75,-200.25 23.75,-187.25 23.75,-187.25 23.75,-181.25 29.75,-175.25 35.75,-175.25 35.75,-175.25 122.25,-175.25 122.25,-175.25 128.25,-175.25 134.25,-181.25 134.25,-187.25 134.25,-187.25 134.25,-200.25 134.25,-200.25 134.25,-206.25 128.25,-212.25 122.25,-212.25"/>
<text xml:space="preserve" text-anchor="start" x="31.75" y="-198.8" font-family="Helvetica Neue" font-weight="bold" font-size="11.00" fill="white">BackgroundAgent</text>
<text xml:space="preserve" text-anchor="start" x="37.75" y="-189.7" font-family="Helvetica Neue" font-size="9.00" fill="white">Dashboard inference</text>
<text xml:space="preserve" text-anchor="start" x="34.75" y="-180.7" font-family="Helvetica Neue" font-size="9.00" fill="white">(2s debounce, 5 tools)</text>
</g>
<!-- gemini_client&#45;&gt;bg_agent -->
<g id="edge6" class="edge">
<title>gemini_client&#45;&gt;bg_agent</title>
<path fill="none" stroke="#8b949e" stroke-dasharray="5,2" d="M125.52,-320.39C119.65,-315.26 113.92,-309.28 109.75,-302.75 94.35,-278.66 86.5,-246.73 82.61,-223.85"/>
<polygon fill="#8b949e" stroke="#8b949e" points="86.07,-223.34 81.1,-213.98 79.15,-224.39 86.07,-223.34"/>
<text xml:space="preserve" text-anchor="middle" x="128.88" y="-294.2" font-family="Helvetica Neue" font-size="9.00" fill="#8b949e">transcript</text>
<text xml:space="preserve" text-anchor="middle" x="128.88" y="-282.95" font-family="Helvetica Neue" font-size="9.00" fill="#8b949e">feed</text>
</g>
<!-- fw -->
<g id="node8" class="node">
<title>fw</title>
<path fill="#f78166" stroke="#30363d" d="M202.5,-60C202.5,-60 123.5,-60 123.5,-60 117.5,-60 111.5,-54 111.5,-48 111.5,-48 111.5,-36 111.5,-36 111.5,-30 117.5,-24 123.5,-24 123.5,-24 202.5,-24 202.5,-24 208.5,-24 214.5,-30 214.5,-36 214.5,-36 214.5,-48 214.5,-48 214.5,-54 208.5,-60 202.5,-60"/>
<text xml:space="preserve" text-anchor="middle" x="163" y="-45.05" font-family="Helvetica Neue" font-size="11.00" fill="white">FirestoreWriter</text>
<text xml:space="preserve" text-anchor="middle" x="163" y="-31.55" font-family="Helvetica Neue" font-size="11.00" fill="white">(Transaction&#45;safe)</text>
</g>
<!-- gemini_client&#45;&gt;fw -->
<g id="edge5" class="edge">
<title>gemini_client&#45;&gt;fw</title>
<path fill="none" stroke="#8b949e" d="M151.71,-320.66C153.71,-271.54 159.36,-132.47 161.83,-71.85"/>
<polygon fill="#8b949e" stroke="#8b949e" points="165.32,-72.14 162.23,-62.01 158.32,-71.85 165.32,-72.14"/>
<text xml:space="preserve" text-anchor="middle" x="180.3" y="-190.82" font-family="Helvetica Neue" font-size="9.00" fill="#8b949e">tool results</text>
</g>
<!-- gemini_live -->
<g id="node9" class="node">
<title>gemini_live</title>
<path fill="#4285f4" stroke="#30363d" d="M501,-212.25C501,-212.25 389,-212.25 389,-212.25 383,-212.25 377,-206.25 377,-200.25 377,-200.25 377,-187.25 377,-187.25 377,-181.25 383,-175.25 389,-175.25 389,-175.25 501,-175.25 501,-175.25 507,-175.25 513,-181.25 513,-187.25 513,-187.25 513,-200.25 513,-200.25 513,-206.25 507,-212.25 501,-212.25"/>
<text xml:space="preserve" text-anchor="start" x="403.75" y="-198.8" font-family="Helvetica Neue" font-weight="bold" font-size="11.00" fill="white">Gemini Live API</text>
<text xml:space="preserve" text-anchor="start" x="385" y="-189.7" font-family="Helvetica Neue" font-size="9.00" fill="white">gemini&#45;2.5&#45;flash&#45;native&#45;audio</text>
<text xml:space="preserve" text-anchor="start" x="408.25" y="-180.7" font-family="Helvetica Neue" font-size="9.00" fill="white">&#45;preview&#45;12&#45;2025</text>
</g>
<!-- gemini_client&#45;&gt;gemini_live -->
<g id="edge8" class="edge">
<title>gemini_client&#45;&gt;gemini_live</title>
<path fill="none" stroke="#4285f4" stroke-width="2" d="M215.68,-327.29C260.73,-317.64 320.94,-300.58 368,-272.25 389.94,-259.04 410.15,-238.21 424.36,-221.47"/>
<polygon fill="#4285f4" stroke="#4285f4" stroke-width="2" points="426.03,-224.95 429.68,-215 420.62,-220.5 426.03,-224.95"/>
<text xml:space="preserve" text-anchor="middle" x="391.39" y="-294.2" font-family="Helvetica Neue" font-size="9.00" fill="#4285f4">WebSocket</text>
<text xml:space="preserve" text-anchor="middle" x="391.39" y="-282.95" font-family="Helvetica Neue" font-size="9.00" fill="#4285f4">(bidirectional audio)</text>
</g>
<!-- bg_agent&#45;&gt;fw -->
<g id="edge7" class="edge">
<title>bg_agent&#45;&gt;fw</title>
<path fill="none" stroke="#8b949e" d="M88.97,-174.98C103.5,-149.06 130.65,-100.66 147.73,-70.23"/>
<polygon fill="#8b949e" stroke="#8b949e" points="150.73,-72.03 152.57,-61.6 144.62,-68.61 150.73,-72.03"/>
<text xml:space="preserve" text-anchor="middle" x="127.13" y="-148.7" font-family="Helvetica Neue" font-size="9.00" fill="#8b949e">inferred</text>
<text xml:space="preserve" text-anchor="middle" x="127.13" y="-137.45" font-family="Helvetica Neue" font-size="9.00" fill="#8b949e">updates</text>
</g>
<!-- gemini_flash -->
<g id="node10" class="node">
<title>gemini_flash</title>
<path fill="#4285f4" stroke="#30363d" d="M347,-212.25C347,-212.25 259,-212.25 259,-212.25 253,-212.25 247,-206.25 247,-200.25 247,-200.25 247,-187.25 247,-187.25 247,-181.25 253,-175.25 259,-175.25 259,-175.25 347,-175.25 347,-175.25 353,-175.25 359,-181.25 359,-187.25 359,-187.25 359,-200.25 359,-200.25 359,-206.25 353,-212.25 347,-212.25"/>
<text xml:space="preserve" text-anchor="start" x="268.88" y="-198.8" font-family="Helvetica Neue" font-weight="bold" font-size="11.00" fill="white">Gemini Flash</text>
<text xml:space="preserve" text-anchor="start" x="270" y="-189.7" font-family="Helvetica Neue" font-size="9.00" fill="white">gemini&#45;2.5&#45;flash</text>
<text xml:space="preserve" text-anchor="start" x="255" y="-180.7" font-family="Helvetica Neue" font-size="9.00" fill="white">(Text generation + tools)</text>
</g>
<!-- bg_agent&#45;&gt;gemini_flash -->
<g id="edge9" class="edge">
<title>bg_agent&#45;&gt;gemini_flash</title>
<path fill="none" stroke="#8957e5" d="M88.48,-212.71C100.97,-234.91 125.32,-269.68 158.75,-277.79 189.2,-285.18 200.71,-290.72 229.25,-277.79 254.25,-266.47 274.12,-242.03 286.92,-222.4"/>
<polygon fill="#8957e5" stroke="#8957e5" points="289.85,-224.31 292.15,-213.96 283.9,-220.62 289.85,-224.31"/>
<text xml:space="preserve" text-anchor="middle" x="194" y="-294.2" font-family="Helvetica Neue" font-size="9.00" fill="#8957e5">analyze transcript</text>
<text xml:space="preserve" text-anchor="middle" x="194" y="-282.95" font-family="Helvetica Neue" font-size="9.00" fill="#8957e5">+ function calling</text>
</g>
<!-- firestore -->
<g id="node11" class="node">
<title>firestore</title>
<path fill="#f9ab00" stroke="#30363d" d="M616.88,-212.25C616.88,-212.25 543.12,-212.25 543.12,-212.25 537.12,-212.25 531.12,-206.25 531.12,-200.25 531.12,-200.25 531.12,-187.25 531.12,-187.25 531.12,-181.25 537.12,-175.25 543.12,-175.25 543.12,-175.25 616.88,-175.25 616.88,-175.25 622.88,-175.25 628.88,-181.25 628.88,-187.25 628.88,-187.25 628.88,-200.25 628.88,-200.25 628.88,-206.25 622.88,-212.25 616.88,-212.25"/>
<text xml:space="preserve" text-anchor="start" x="539.12" y="-198.8" font-family="Helvetica Neue" font-weight="bold" font-size="11.00" fill="#1a1a1a">Cloud Firestore</text>
<text xml:space="preserve" text-anchor="start" x="544.75" y="-189.7" font-family="Helvetica Neue" font-size="9.00" fill="#1a1a1a">Real&#45;time NoSQL</text>
<text xml:space="preserve" text-anchor="start" x="542.5" y="-180.7" font-family="Helvetica Neue" font-size="9.00" fill="#1a1a1a">(onSnapshot sync)</text>
</g>
<!-- fw&#45;&gt;firestore -->
<g id="edge10" class="edge">
<title>fw&#45;&gt;firestore</title>
<path fill="none" stroke="#f9ab00" d="M214.9,-59.5C285.14,-82.16 414.09,-124.93 522,-167.25 524.51,-168.23 527.06,-169.26 529.64,-170.31"/>
<polygon fill="#f9ab00" stroke="#f9ab00" points="528.27,-173.54 538.85,-174.18 530.98,-167.08 528.27,-173.54"/>
<text xml:space="preserve" text-anchor="middle" x="520.28" y="-148.7" font-family="Helvetica Neue" font-size="9.00" fill="#f9ab00">upsert</text>
<text xml:space="preserve" text-anchor="middle" x="520.28" y="-137.45" font-family="Helvetica Neue" font-size="9.00" fill="#f9ab00">(transactions)</text>
</g>
<!-- firestore&#45;&gt;ui -->
<g id="edge11" class="edge">
<title>firestore&#45;&gt;ui</title>
<path fill="none" stroke="#f9ab00" stroke-width="2" d="M592.69,-174.98C610.88,-149.54 644.54,-102.42 666.34,-71.91"/>
<polygon fill="#f9ab00" stroke="#f9ab00" stroke-width="2" points="668.24,-75.27 671.21,-65.1 662.55,-71.2 668.24,-75.27"/>
<text xml:space="preserve" text-anchor="middle" x="651.14" y="-148.7" font-family="Helvetica Neue" font-size="9.00" fill="#f9ab00">onSnapshot</text>
<text xml:space="preserve" text-anchor="middle" x="651.14" y="-137.45" font-family="Helvetica Neue" font-size="9.00" fill="#f9ab00">(real&#45;time sync)</text>
</g>
<!-- firebase_auth -->
<g id="node12" class="node">
<title>firebase_auth</title>
<path fill="#f9ab00" stroke="#30363d" d="M723.38,-211.75C723.38,-211.75 658.62,-211.75 658.62,-211.75 652.62,-211.75 646.62,-205.75 646.62,-199.75 646.62,-199.75 646.62,-187.75 646.62,-187.75 646.62,-181.75 652.62,-175.75 658.62,-175.75 658.62,-175.75 723.38,-175.75 723.38,-175.75 729.38,-175.75 735.38,-181.75 735.38,-187.75 735.38,-187.75 735.38,-199.75 735.38,-199.75 735.38,-205.75 729.38,-211.75 723.38,-211.75"/>
<text xml:space="preserve" text-anchor="start" x="654.62" y="-194.3" font-family="Helvetica Neue" font-weight="bold" font-size="11.00" fill="#1a1a1a">Firebase Auth</text>
<text xml:space="preserve" text-anchor="start" x="662.12" y="-185.2" font-family="Helvetica Neue" font-size="9.00" fill="#1a1a1a">Google OAuth</text>
</g>
<!-- firebase_auth&#45;&gt;ws -->
<g id="edge12" class="edge">
<title>firebase_auth&#45;&gt;ws</title>
<path fill="none" stroke="#f9ab00" stroke-dasharray="5,2" d="M682.88,-211.94C673.98,-229.19 658.23,-255.53 638,-272.25 511.77,-376.59 321.69,-434.88 233.75,-457.66"/>
<polygon fill="#f9ab00" stroke="#f9ab00" points="233.09,-454.22 224.26,-460.08 234.81,-461 233.09,-454.22"/>
<text xml:space="preserve" text-anchor="middle" x="587.05" y="-341.95" font-family="Helvetica Neue" font-size="9.00" fill="#f9ab00">ID token</text>
<text xml:space="preserve" text-anchor="middle" x="587.05" y="-330.7" font-family="Helvetica Neue" font-size="9.00" fill="#f9ab00">verification</text>
</g>
<!-- firebase_hosting -->
<g id="node13" class="node">
<title>firebase_hosting</title>
<path fill="#f9ab00" stroke="#30363d" d="M846.62,-211.75C846.62,-211.75 765.38,-211.75 765.38,-211.75 759.38,-211.75 753.38,-205.75 753.38,-199.75 753.38,-199.75 753.38,-187.75 753.38,-187.75 753.38,-181.75 759.38,-175.75 765.38,-175.75 765.38,-175.75 846.62,-175.75 846.62,-175.75 852.62,-175.75 858.62,-181.75 858.62,-187.75 858.62,-187.75 858.62,-199.75 858.62,-199.75 858.62,-205.75 852.62,-211.75 846.62,-211.75"/>
<text xml:space="preserve" text-anchor="start" x="761.38" y="-194.3" font-family="Helvetica Neue" font-weight="bold" font-size="11.00" fill="#1a1a1a">Firebase Hosting</text>
<text xml:space="preserve" text-anchor="start" x="780.12" y="-185.2" font-family="Helvetica Neue" font-size="9.00" fill="#1a1a1a">Next.js static</text>
</g>
<!-- firebase_hosting&#45;&gt;mic -->
<g id="edge13" class="edge">
<title>firebase_hosting&#45;&gt;mic</title>
<path fill="none" stroke="#8b949e" stroke-dasharray="1,5" d="M808.92,-175.28C812.88,-151.54 820.06,-108.56 825.15,-78.04"/>
<polygon fill="#8b949e" stroke="#8b949e" points="828.55,-78.95 826.74,-68.51 821.64,-77.8 828.55,-78.95"/>
<text xml:space="preserve" text-anchor="middle" x="836.9" y="-143.07" font-family="Helvetica Neue" font-size="9.00" fill="#8b949e">serves app</text>
</g>
</g>
</svg>
